Patient4_TMGait_0pt5_01_right_21_EMG.mot
version=1
nRows=13
nColumns=33
inDegrees=no
endheader
time	1LAddLong	2LGlutMax	3LGlutMed	4LIliopsoas	5LSemiMemb	6LBicFemLong	7LRecFem	8LVastMed	9LVastLat	10LGasMed	11LTibAnt	12lTibPost	13LPeroneusLong	14LSol	15LExtDigLong	16LFlexDigLong	17RAddLong	18RGlutMax	19RGlutMed	20RIliopsoas	21RSemiMemb	22RBicFemLong	23RRecFem	24RVastMed	25RVastLat	26RGasMed	27RTibAnt	28RTibPost	29RPeroneusLong	30RSol	31RExtDigLong	32RFlexDigLong
28.375	-0.011139	0.04425	0.08255	-0.00824	-0.12009	0.17563	0.054779	-0.007935	0.15823	-0.001068	-0.002136	0.020142	0.10468	0.0737	-0.10681	0.000153	0.009766	0.47836	0.17716	0.072784	-0.067902	-0.20309	-0.215	-0.017395	0.032806	-0.00351	0.079041	-0.004883	0.17242	0.15671	-0.002747	-0.021057
28.376	0.007935	0.02655	0.087128	0.0177	-0.10193	0.066223	0.072479	-0.003662	0.029144	-0.014648	-0.006866	-0.006714	0.045776	0.037689	-0.20798	0.002441	0.007629	0.49194	0.06424	0.053711	-0.095062	-0.26535	-0.21164	-0.026703	0.044403	0.006714	0.15182	-0.015411	0.097961	0.093536	-0.007935	-0.005493
28.377	0.02533	0.016937	0.077362	0.00351	0.04715	-0.12634	0.075836	0	-0.084381	-0.027008	0.019989	0.001678	-0.041351	-0.023651	-0.22812	0.000305	0.017242	0.61325	0.078125	0.030823	-0.10544	-0.20721	-0.19516	-0.017242	0.016937	0.007324	0.11612	-0.016785	0.098724	0.11353	-0.007019	-0.018768
28.378	0.030975	0.006104	0.089722	0.039063	0.14313	-0.097809	0.036316	0.001831	-0.13062	-0.010834	0.018921	0.008087	-0.15305	-0.046387	-0.14648	-0.001373	0.018005	0.65216	0.053101	0.024567	-0.11887	-0.14862	-0.23132	-0.018921	0.009003	0.000763	0.1532	0.016785	0.10696	0.039978	-0.006104	-0.011902
28.379	0.016174	-0.005798	0.062103	0.001068	0.13733	-0.036011	-0.013885	0.008392	-0.12131	0.006409	0.028687	0.001221	-0.12192	-0.001831	-0.035706	-0.000153	0.011444	0.7576	0.038452	0.020752	-0.13473	-0.091858	-0.21164	-0.055542	0.009308	-0.001831	0.11231	0.024109	0.11002	-0.085144	-0.005493	-0.012512
28.38	0.002289	-0.033264	0.007629	0.001831	0.097961	0.059814	-0.003357	0.007324	-0.035553	0.016174	0.037079	0.024567	-0.16953	0.007019	0.07019	-0.005035	-0.00824	0.80261	0.065002	0.058746	-0.13565	-0.010223	-0.24002	-0.001221	0.019989	-0.001221	-0.068054	-0.000305	0.08316	-0.12863	-0.002899	-0.016022
28.381	-0.007172	-0.059052	-0.010834	0.014496	0.067902	0.011902	-0.011444	0.011597	-0.003357	0.017395	0.030975	0.018005	-0.13916	0.009155	0.1593	-0.005951	-0.009003	0.79285	0.07431	0.000305	-0.019531	0.074463	-0.24826	-0.007629	0.010529	0.005798	-0.43945	0.001526	0.19531	-0.24582	-0.002136	-0.015259
28.382	-0.015411	-0.033722	0.00885	0.031891	0.036621	-0.080872	-0.009308	0.013123	0.089264	0.006561	0.019836	-0.000763	-0.0914	0.0177	0.12589	0.003967	-0.008087	0.85968	0.070953	-0.018921	0.051422	0.18021	-0.24292	0.010834	-0.004272	0.011444	-0.65353	-0.000305	0.14038	-0.33539	-0.005493	-0.00885
28.383	-0.005493	-0.048981	0.022736	0.012817	0.005646	-0.041809	-0.028534	-0.007324	0.027008	0.015564	0.01709	-0.000763	-0.13031	0.001831	0.1326	-0.005493	0.009918	0.81696	0.1416	-0.043182	-0.062866	0.091858	-0.26688	0.013428	-0.00061	0.018921	-0.35492	-0.000305	0.033875	-0.42587	-0.000153	-0.002899
28.384	-0.029755	-0.068207	-0.0177	0.001221	-0.035248	-0.0354	-0.0354	-0.046997	-0.011444	0.015411	0.021667	0.018158	-0.085754	0.023499	0.15549	0.00351	0.014954	0.79163	0.18509	-0.063171	-0.16769	-0.051422	-0.24933	-0.019379	-0.014496	0.01236	0.19928	-0.007782	-0.031128	-0.38773	-0.000916	-0.011139
28.385	-0.015259	0.021057	-0.037537	0.001984	-0.10071	-0.11429	0.02121	0.024719	-0.056152	0.03479	0.021057	0.007019	0.18951	-0.013885	0.18082	0.009308	0.010376	0.70267	0.13504	-0.046082	-0.16815	-0.13565	-0.26093	-0.00412	0	-0.002136	0.50049	-0.001068	-0.041046	-0.15854	-0.004883	-0.011444
28.386	-0.015564	-0.009613	-0.036926	0.020447	-0.11398	-0.097961	0.065002	0.009308	-0.12833	0.037079	0.008698	-0.003357	0.07431	-0.054932	0.14328	0.010376	-0.00412	0.66376	0.13809	-0.037384	-0.10498	-0.14252	-0.32425	0.031128	0.006866	-0.006866	0.54336	-0.004425	0.093384	0.07019	-0.00885	-0.007172
28.387	-0.00412	0.028687	0.012054	0.010681	-0.051422	-0.10284	0.077362	0.008545	-0.16449	0.023499	-0.01297	0.005646	0.016327	-0.054474	0.11002	0.018463	-0.017242	0.60928	0.24796	-0.007935	0.029297	-0.077057	-0.25528	-0.015411	-0.009613	0.004578	0.44662	-0.002136	0.24338	0.14099	-0.008545	-0.007782
